500 0 1 0                                           
26 Datakit CrossCadWare V22.1 2    24 Fri Apr  1 13:28:56 2022 
1 9.9999999999999995e-007 1e-010
-0 body $1 $3 $-1 $-1 #
-1 rgb_color-st-attrib $-1 $2 $-1 $0 0.615686 0.811765 0.925490 #
-2 string_attrib-name_attrib-gen-attrib $-1 $-1 $1 $0 keep keep_kept ignore 17 ATTRIB_XACIS_NAME 3 box #
-3 lump $-1 $-1 $4 $0 #
-4 shell $-1 $-1 $-1 $5 $-1 $3 #
-5 face $6 $7 $47 $4 $-1 $33 forward single #
-6 rgb_color-st-attrib $-1 $-1 $-1 $5 0.615686 0.811765 0.925490 #
-7 face $8 $9 $48 $4 $-1 $34 reversed single #
-8 rgb_color-st-attrib $-1 $-1 $-1 $7 0.615686 0.811765 0.925490 #
-9 face $10 $11 $49 $4 $-1 $35 reversed single #
-10 rgb_color-st-attrib $-1 $-1 $-1 $9 0.615686 0.811765 0.925490 #
-11 face $12 $13 $50 $4 $-1 $36 reversed single #
-12 rgb_color-st-attrib $-1 $-1 $-1 $11 0.615686 0.811765 0.925490 #
-13 face $14 $15 $51 $4 $-1 $37 reversed single #
-14 rgb_color-st-attrib $-1 $-1 $-1 $13 0.615686 0.811765 0.925490 #
-15 face $16 $17 $52 $4 $-1 $38 reversed single #
-16 rgb_color-st-attrib $-1 $-1 $-1 $15 0.615686 0.811765 0.925490 #
-17 face $18 $19 $53 $4 $-1 $39 forward single #
-18 rgb_color-st-attrib $-1 $-1 $-1 $17 0.615686 0.811765 0.925490 #
-19 face $20 $21 $54 $4 $-1 $40 reversed single #
-20 rgb_color-st-attrib $-1 $-1 $-1 $19 0.615686 0.811765 0.925490 #
-21 face $22 $23 $55 $4 $-1 $41 forward single #
-22 rgb_color-st-attrib $-1 $-1 $-1 $21 0.615686 0.811765 0.925490 #
-23 face $24 $25 $60 $4 $-1 $42 reversed single #
-24 rgb_color-st-attrib $-1 $-1 $-1 $23 0.615686 0.811765 0.925490 #
-25 face $26 $27 $65 $4 $-1 $43 reversed single #
-26 rgb_color-st-attrib $-1 $-1 $-1 $25 0.615686 0.811765 0.925490 #
-27 face $28 $29 $66 $4 $-1 $44 reversed single #
-28 rgb_color-st-attrib $-1 $-1 $-1 $27 0.615686 0.811765 0.925490 #
-29 face $30 $31 $67 $4 $-1 $45 reversed single #
-30 rgb_color-st-attrib $-1 $-1 $-1 $29 0.615686 0.811765 0.925490 #
-31 face $32 $-1 $68 $4 $-1 $46 reversed single #
-32 rgb_color-st-attrib $-1 $-1 $-1 $31 0.615686 0.811765 0.925490 #
-33 plane-surface $-1 0.2500000000 -0.0000000000 1.0000000000 1.0000000000 -0.0000000000 0.0000000000 0.0000000000 1.0000000000 0.0000000000 forward_v I I I I #
-34 plane-surface $-1 0.0000000000 0.2500000000 1.0000000000 -0.0000000000 -1.0000000000 0.0000000000 1.0000000000 -0.0000000000 0.0000000000 forward_v I I I I #
-35 plane-surface $-1 -0.2500000000 0.0000000000 1.0000000000 1.0000000000 -0.0000000000 0.0000000000 0.0000000000 1.0000000000 0.0000000000 forward_v I I I I #
-36 cone-surface $-1 0.1000000000 -0.1000000000 1.0000000000 0.0000000000 0.0000000000 -1.0000000000 -0.0000000000 0.0500000000 0.0000000000 1 I I 0 1 1 forward I I I I #
-37 cone-surface $-1 -0.1000000000 0.1000000000 1.0000000000 0.0000000000 0.0000000000 -1.0000000000 -0.0000000000 0.0500000000 0.0000000000 1 I I 0 1 1 forward I I I I #
-38 cone-surface $-1 -0.1000000000 -0.1000000000 1.0000000000 0.0000000000 0.0000000000 -1.0000000000 -0.0000000000 0.0500000000 0.0000000000 1 I I 0 1 1 forward I I I I #
-39 plane-surface $-1 -0.0000000000 -0.2500000000 1.0000000000 -0.0000000000 -1.0000000000 0.0000000000 1.0000000000 -0.0000000000 0.0000000000 forward_v I I I I #
-40 cone-surface $-1 0.1000000000 0.1000000000 1.0000000000 0.0000000000 0.0000000000 -1.0000000000 -0.0000000000 0.0500000000 0.0000000000 1 I I 0 1 1 forward I I I I #
-41 plane-surface $-1 0.0000000000 0.0000000000 1.0000000000 0.0000000000 0.0000000000 1.0000000000 1.0000000000 0.0000000000 0.0000000000 forward_v I I I I #
-42 plane-surface $-1 0.0000000000 0.0000000000 0.0000000000 0.0000000000 0.0000000000 1.0000000000 1.0000000000 0.0000000000 0.0000000000 forward_v I I I I #
-43 cone-surface $-1 0.1000000000 -0.1000000000 1.0000000000 0.0000000000 0.0000000000 -1.0000000000 -0.0000000000 -0.0500000000 0.0000000000 1 I I 0 1 1 forward I I I I #
-44 cone-surface $-1 -0.1000000000 0.1000000000 1.0000000000 0.0000000000 0.0000000000 -1.0000000000 -0.0000000000 -0.0500000000 0.0000000000 1 I I 0 1 1 forward I I I I #
-45 cone-surface $-1 -0.1000000000 -0.1000000000 1.0000000000 0.0000000000 0.0000000000 -1.0000000000 -0.0000000000 -0.0500000000 0.0000000000 1 I I 0 1 1 forward I I I I #
-46 cone-surface $-1 0.1000000000 0.1000000000 1.0000000000 0.0000000000 0.0000000000 -1.0000000000 -0.0000000000 -0.0500000000 0.0000000000 1 I I 0 1 1 forward I I I I #
-47 loop $-1 $-1 $69 $5 #
-48 loop $-1 $-1 $73 $7 #
-49 loop $-1 $-1 $77 $9 #
-50 loop $-1 $-1 $81 $11 #
-51 loop $-1 $-1 $85 $13 #
-52 loop $-1 $-1 $89 $15 #
-53 loop $-1 $-1 $93 $17 #
-54 loop $-1 $-1 $97 $19 #
-55 loop $-1 $56 $101 $21 #
-56 loop $-1 $57 $105 $21 #
-57 loop $-1 $58 $107 $21 #
-58 loop $-1 $59 $109 $21 #
-59 loop $-1 $-1 $111 $21 #
-60 loop $-1 $61 $113 $23 #
-61 loop $-1 $62 $117 $23 #
-62 loop $-1 $63 $119 $23 #
-63 loop $-1 $64 $121 $23 #
-64 loop $-1 $-1 $123 $23 #
-65 loop $-1 $-1 $125 $25 #
-66 loop $-1 $-1 $129 $27 #
-67 loop $-1 $-1 $133 $29 #
-68 loop $-1 $-1 $137 $31 #
-69 coedge $-1 $70 $72 $113 $141 reversed $47 $-1 #
-70 coedge $-1 $71 $69 $76 $142 reversed $47 $-1 #
-71 coedge $-1 $72 $70 $101 $143 forward $47 $-1 #
-72 coedge $-1 $69 $71 $94 $144 forward $47 $-1 #
-73 coedge $-1 $74 $76 $116 $145 forward $48 $-1 #
-74 coedge $-1 $75 $73 $80 $146 reversed $48 $-1 #
-75 coedge $-1 $76 $74 $102 $147 reversed $48 $-1 #
-76 coedge $-1 $73 $75 $70 $142 forward $48 $-1 #
-77 coedge $-1 $78 $80 $115 $148 forward $49 $-1 #
-78 coedge $-1 $79 $77 $96 $149 reversed $49 $-1 #
-79 coedge $-1 $80 $78 $103 $150 reversed $49 $-1 #
-80 coedge $-1 $77 $79 $74 $146 forward $49 $-1 #
-81 coedge $-1 $82 $84 $125 $151 forward $50 $-1 #
-82 coedge $-1 $83 $81 $122 $152 reversed $50 $-1 #
-83 coedge $-1 $84 $82 $127 $153 reversed $50 $-1 #
-84 coedge $-1 $81 $83 $109 $154 forward $50 $-1 #
-85 coedge $-1 $86 $88 $129 $155 forward $51 $-1 #
-86 coedge $-1 $87 $85 $120 $156 reversed $51 $-1 #
-87 coedge $-1 $88 $86 $131 $157 reversed $51 $-1 #
-88 coedge $-1 $85 $87 $107 $158 forward $51 $-1 #
-89 coedge $-1 $90 $92 $133 $159 forward $52 $-1 #
-90 coedge $-1 $91 $89 $118 $160 reversed $52 $-1 #
-91 coedge $-1 $92 $90 $135 $161 reversed $52 $-1 #
-92 coedge $-1 $89 $91 $105 $162 forward $52 $-1 #
-93 coedge $-1 $94 $96 $114 $163 reversed $53 $-1 #
-94 coedge $-1 $95 $93 $72 $144 reversed $53 $-1 #
-95 coedge $-1 $96 $94 $104 $164 forward $53 $-1 #
-96 coedge $-1 $93 $95 $78 $149 forward $53 $-1 #
-97 coedge $-1 $98 $100 $137 $165 forward $54 $-1 #
-98 coedge $-1 $99 $97 $124 $166 reversed $54 $-1 #
-99 coedge $-1 $100 $98 $139 $167 reversed $54 $-1 #
-100 coedge $-1 $97 $99 $111 $168 forward $54 $-1 #
-101 coedge $-1 $102 $104 $71 $143 reversed $55 $-1 #
-102 coedge $-1 $103 $101 $75 $147 forward $55 $-1 #
-103 coedge $-1 $104 $102 $79 $150 forward $55 $-1 #
-104 coedge $-1 $101 $103 $95 $164 reversed $55 $-1 #
-105 coedge $-1 $106 $106 $92 $162 reversed $56 $-1 #
-106 coedge $-1 $105 $105 $134 $169 reversed $56 $-1 #
-107 coedge $-1 $108 $108 $88 $158 reversed $57 $-1 #
-108 coedge $-1 $107 $107 $130 $170 reversed $57 $-1 #
-109 coedge $-1 $110 $110 $84 $154 reversed $58 $-1 #
-110 coedge $-1 $109 $109 $126 $171 reversed $58 $-1 #
-111 coedge $-1 $112 $112 $100 $168 reversed $59 $-1 #
-112 coedge $-1 $111 $111 $138 $172 reversed $59 $-1 #
-113 coedge $-1 $114 $116 $69 $141 forward $60 $-1 #
-114 coedge $-1 $115 $113 $93 $163 forward $60 $-1 #
-115 coedge $-1 $116 $114 $77 $148 reversed $60 $-1 #
-116 coedge $-1 $113 $115 $73 $145 reversed $60 $-1 #
-117 coedge $-1 $118 $118 $136 $173 forward $61 $-1 #
-118 coedge $-1 $117 $117 $90 $160 forward $61 $-1 #
-119 coedge $-1 $120 $120 $132 $174 forward $62 $-1 #
-120 coedge $-1 $119 $119 $86 $156 forward $62 $-1 #
-121 coedge $-1 $122 $122 $128 $175 forward $63 $-1 #
-122 coedge $-1 $121 $121 $82 $152 forward $63 $-1 #
-123 coedge $-1 $124 $124 $140 $176 forward $64 $-1 #
-124 coedge $-1 $123 $123 $98 $166 forward $64 $-1 #
-125 coedge $-1 $126 $128 $81 $151 reversed $65 $-1 #
-126 coedge $-1 $127 $125 $110 $171 forward $65 $-1 #
-127 coedge $-1 $128 $126 $83 $153 forward $65 $-1 #
-128 coedge $-1 $125 $127 $121 $175 reversed $65 $-1 #
-129 coedge $-1 $130 $132 $85 $155 reversed $66 $-1 #
-130 coedge $-1 $131 $129 $108 $170 forward $66 $-1 #
-131 coedge $-1 $132 $130 $87 $157 forward $66 $-1 #
-132 coedge $-1 $129 $131 $119 $174 reversed $66 $-1 #
-133 coedge $-1 $134 $136 $89 $159 reversed $67 $-1 #
-134 coedge $-1 $135 $133 $106 $169 forward $67 $-1 #
-135 coedge $-1 $136 $134 $91 $161 forward $67 $-1 #
-136 coedge $-1 $133 $135 $117 $173 reversed $67 $-1 #
-137 coedge $-1 $138 $140 $97 $165 reversed $68 $-1 #
-138 coedge $-1 $139 $137 $112 $172 forward $68 $-1 #
-139 coedge $-1 $140 $138 $99 $167 forward $68 $-1 #
-140 coedge $-1 $137 $139 $123 $176 reversed $68 $-1 #
-141 edge $-1 $178 -0.2500000000 $180 0.2500000000 $69 $177 forward 7 unknown #
-142 edge $-1 $183 0.0000000000 $178 1.0000000000 $70 $182 forward 7 unknown #
-143 edge $-1 $183 -0.2500000000 $186 0.2500000000 $71 $185 forward 7 unknown #
-144 edge $-1 $186 0.0000000000 $180 1.0000000000 $72 $188 forward 7 unknown #
-145 edge $-1 $178 -0.2500000000 $190 0.2500000000 $73 $189 forward 7 unknown #
-146 edge $-1 $193 0.0000000000 $190 1.0000000000 $74 $192 forward 7 unknown #
-147 edge $-1 $183 -0.2500000000 $193 0.2500000000 $75 $195 forward 7 unknown #
-148 edge $-1 $190 -0.2500000000 $197 0.2500000000 $77 $196 forward 7 unknown #
-149 edge $-1 $200 0.0000000000 $197 1.0000000000 $78 $199 forward 7 unknown #
-150 edge $-1 $193 -0.2500000000 $200 0.2500000000 $79 $202 forward 7 unknown #
-151 edge $-1 $204 0.0000000000 $206 1.0000000000 $81 $203 forward 7 unknown #
-152 edge $-1 $209 3.1415926536 $206 6.2831853072 $82 $208 forward 7 unknown #
-153 edge $-1 $212 0.0000000000 $209 1.0000000000 $83 $211 forward 7 unknown #
-154 edge $-1 $212 3.1415926536 $204 6.2831853072 $84 $214 forward 7 unknown #
-155 edge $-1 $216 0.0000000000 $218 1.0000000000 $85 $215 forward 7 unknown #
-156 edge $-1 $221 3.1415926536 $218 6.2831853072 $86 $220 forward 7 unknown #
-157 edge $-1 $224 0.0000000000 $221 1.0000000000 $87 $223 forward 7 unknown #
-158 edge $-1 $224 3.1415926536 $216 6.2831853072 $88 $226 forward 7 unknown #
-159 edge $-1 $228 0.0000000000 $230 1.0000000000 $89 $227 forward 7 unknown #
-160 edge $-1 $233 3.1415926536 $230 6.2831853072 $90 $232 forward 7 unknown #
-161 edge $-1 $236 0.0000000000 $233 1.0000000000 $91 $235 forward 7 unknown #
-162 edge $-1 $236 3.1415926536 $228 6.2831853072 $92 $238 forward 7 unknown #
-163 edge $-1 $180 -0.2500000000 $197 0.2500000000 $93 $239 forward 7 unknown #
-164 edge $-1 $186 -0.2500000000 $200 0.2500000000 $95 $240 forward 7 unknown #
-165 edge $-1 $242 0.0000000000 $244 1.0000000000 $97 $241 forward 7 unknown #
-166 edge $-1 $247 3.1415926536 $244 6.2831853072 $98 $246 forward 7 unknown #
-167 edge $-1 $250 0.0000000000 $247 1.0000000000 $99 $249 forward 7 unknown #
-168 edge $-1 $250 3.1415926536 $242 6.2831853072 $100 $252 forward 7 unknown #
-169 edge $-1 $228 0.0000000000 $236 3.1415926536 $106 $253 forward 7 unknown #
-170 edge $-1 $216 0.0000000000 $224 3.1415926536 $108 $254 forward 7 unknown #
-171 edge $-1 $204 0.0000000000 $212 3.1415926536 $110 $255 forward 7 unknown #
-172 edge $-1 $242 0.0000000000 $250 3.1415926536 $112 $256 forward 7 unknown #
-173 edge $-1 $230 0.0000000000 $233 3.1415926536 $117 $257 forward 7 unknown #
-174 edge $-1 $218 0.0000000000 $221 3.1415926536 $119 $258 forward 7 unknown #
-175 edge $-1 $206 0.0000000000 $209 3.1415926536 $121 $259 forward 7 unknown #
-176 edge $-1 $244 0.0000000000 $247 3.1415926536 $123 $260 forward 7 unknown #
-177 straight-curve $-1 0.250000000000000 -0.000000000000000 0.000000000000000 -0.000000000000000 -1.000000000000000 0.000000000000000 I I #
-178 vertex $-1 $141 $179 #
-179 point $-1 0.250000000000000 0.250000000000000 0.000000000000000 #
-180 vertex $-1 $141 $181 #
-181 point $-1 0.250000000000000 -0.250000000000000 0.000000000000000 #
-182 straight-curve $-1 0.250000000000000 0.250000000000000 1.000000000000000 0.000000000000000 0.000000000000000 -1.000000000000000 I I #
-183 vertex $-1 $142 $184 #
-184 point $-1 0.250000000000000 0.250000000000000 1.000000000000000 #
-185 straight-curve $-1 0.250000000000000 -0.000000000000000 1.000000000000000 -0.000000000000000 -1.000000000000000 0.000000000000000 I I #
-186 vertex $-1 $143 $187 #
-187 point $-1 0.250000000000000 -0.250000000000000 1.000000000000000 #
-188 straight-curve $-1 0.250000000000000 -0.250000000000000 1.000000000000000 0.000000000000000 0.000000000000000 -1.000000000000000 I I #
-189 straight-curve $-1 0.000000000000000 0.250000000000000 0.000000000000000 -1.000000000000000 0.000000000000000 0.000000000000000 I I #
-190 vertex $-1 $145 $191 #
-191 point $-1 -0.250000000000000 0.250000000000000 0.000000000000000 #
-192 straight-curve $-1 -0.250000000000000 0.250000000000000 1.000000000000000 0.000000000000000 0.000000000000000 -1.000000000000000 I I #
-193 vertex $-1 $146 $194 #
-194 point $-1 -0.250000000000000 0.250000000000000 1.000000000000000 #
-195 straight-curve $-1 0.000000000000000 0.250000000000000 1.000000000000000 -1.000000000000000 0.000000000000000 0.000000000000000 I I #
-196 straight-curve $-1 -0.250000000000000 0.000000000000000 0.000000000000000 -0.000000000000000 -1.000000000000000 0.000000000000000 I I #
-197 vertex $-1 $148 $198 #
-198 point $-1 -0.250000000000000 -0.250000000000000 0.000000000000000 #
-199 straight-curve $-1 -0.250000000000000 -0.250000000000000 1.000000000000000 0.000000000000000 0.000000000000000 -1.000000000000000 I I #
-200 vertex $-1 $149 $201 #
-201 point $-1 -0.250000000000000 -0.250000000000000 1.000000000000000 #
-202 straight-curve $-1 -0.250000000000000 0.000000000000000 1.000000000000000 -0.000000000000000 -1.000000000000000 0.000000000000000 I I #
-203 straight-curve $-1 0.150000000000000 -0.100000000000000 1.000000000000000 0.000000000000000 0.000000000000000 -1.000000000000000 I I #
-204 vertex $-1 $151 $205 #
-205 point $-1 0.150000000000000 -0.100000000000000 1.000000000000000 #
-206 vertex $-1 $151 $207 #
-207 point $-1 0.150000000000000 -0.100000000000000 0.000000000000000 #
-208 ellipse-curve $-1 0.100000000000000 -0.100000000000000 0.000000000000000 0.000000000000000 0.000000000000000 1.000000000000000 0.050000000000000 0.000000000000000 0.000000000000000 1.000000000000000 I I #
-209 vertex $-1 $152 $210 #
-210 point $-1 0.050000000000000 -0.100000000000000 0.000000000000000 #
-211 straight-curve $-1 0.050000000000000 -0.100000000000000 1.000000000000000 0.000000000000000 0.000000000000000 -1.000000000000000 I I #
-212 vertex $-1 $153 $213 #
-213 point $-1 0.050000000000000 -0.100000000000000 1.000000000000000 #
-214 ellipse-curve $-1 0.100000000000000 -0.100000000000000 1.000000000000000 0.000000000000000 0.000000000000000 1.000000000000000 0.050000000000000 0.000000000000000 0.000000000000000 1.000000000000000 I I #
-215 straight-curve $-1 -0.050000000000000 0.100000000000000 1.000000000000000 0.000000000000000 0.000000000000000 -1.000000000000000 I I #
-216 vertex $-1 $155 $217 #
-217 point $-1 -0.050000000000000 0.100000000000000 1.000000000000000 #
-218 vertex $-1 $155 $219 #
-219 point $-1 -0.050000000000000 0.100000000000000 0.000000000000000 #
-220 ellipse-curve $-1 -0.100000000000000 0.100000000000000 0.000000000000000 0.000000000000000 0.000000000000000 1.000000000000000 0.050000000000000 0.000000000000000 0.000000000000000 1.000000000000000 I I #
-221 vertex $-1 $156 $222 #
-222 point $-1 -0.150000000000000 0.100000000000000 0.000000000000000 #
-223 straight-curve $-1 -0.150000000000000 0.100000000000000 1.000000000000000 0.000000000000000 0.000000000000000 -1.000000000000000 I I #
-224 vertex $-1 $157 $225 #
-225 point $-1 -0.150000000000000 0.100000000000000 1.000000000000000 #
-226 ellipse-curve $-1 -0.100000000000000 0.100000000000000 1.000000000000000 0.000000000000000 0.000000000000000 1.000000000000000 0.050000000000000 0.000000000000000 0.000000000000000 1.000000000000000 I I #
-227 straight-curve $-1 -0.050000000000000 -0.100000000000000 1.000000000000000 0.000000000000000 0.000000000000000 -1.000000000000000 I I #
-228 vertex $-1 $159 $229 #
-229 point $-1 -0.050000000000000 -0.100000000000000 1.000000000000000 #
-230 vertex $-1 $159 $231 #
-231 point $-1 -0.050000000000000 -0.100000000000000 0.000000000000000 #
-232 ellipse-curve $-1 -0.100000000000000 -0.100000000000000 0.000000000000000 0.000000000000000 0.000000000000000 1.000000000000000 0.050000000000000 0.000000000000000 0.000000000000000 1.000000000000000 I I #
-233 vertex $-1 $160 $234 #
-234 point $-1 -0.150000000000000 -0.100000000000000 0.000000000000000 #
-235 straight-curve $-1 -0.150000000000000 -0.100000000000000 1.000000000000000 0.000000000000000 0.000000000000000 -1.000000000000000 I I #
-236 vertex $-1 $161 $237 #
-237 point $-1 -0.150000000000000 -0.100000000000000 1.000000000000000 #
-238 ellipse-curve $-1 -0.100000000000000 -0.100000000000000 1.000000000000000 0.000000000000000 0.000000000000000 1.000000000000000 0.050000000000000 0.000000000000000 0.000000000000000 1.000000000000000 I I #
-239 straight-curve $-1 -0.000000000000000 -0.250000000000000 0.000000000000000 -1.000000000000000 0.000000000000000 0.000000000000000 I I #
-240 straight-curve $-1 -0.000000000000000 -0.250000000000000 1.000000000000000 -1.000000000000000 0.000000000000000 0.000000000000000 I I #
-241 straight-curve $-1 0.150000000000000 0.100000000000000 1.000000000000000 0.000000000000000 0.000000000000000 -1.000000000000000 I I #
-242 vertex $-1 $165 $243 #
-243 point $-1 0.150000000000000 0.100000000000000 1.000000000000000 #
-244 vertex $-1 $165 $245 #
-245 point $-1 0.150000000000000 0.100000000000000 0.000000000000000 #
-246 ellipse-curve $-1 0.100000000000000 0.100000000000000 0.000000000000000 0.000000000000000 0.000000000000000 1.000000000000000 0.050000000000000 0.000000000000000 0.000000000000000 1.000000000000000 I I #
-247 vertex $-1 $166 $248 #
-248 point $-1 0.050000000000000 0.100000000000000 0.000000000000000 #
-249 straight-curve $-1 0.050000000000000 0.100000000000000 1.000000000000000 0.000000000000000 0.000000000000000 -1.000000000000000 I I #
-250 vertex $-1 $167 $251 #
-251 point $-1 0.050000000000000 0.100000000000000 1.000000000000000 #
-252 ellipse-curve $-1 0.100000000000000 0.100000000000000 1.000000000000000 0.000000000000000 0.000000000000000 1.000000000000000 0.050000000000000 0.000000000000000 0.000000000000000 1.000000000000000 I I #
-253 ellipse-curve $-1 -0.100000000000000 -0.100000000000000 1.000000000000000 0.000000000000000 0.000000000000000 1.000000000000000 0.050000000000000 0.000000000000000 0.000000000000000 1.000000000000000 I I #
-254 ellipse-curve $-1 -0.100000000000000 0.100000000000000 1.000000000000000 0.000000000000000 0.000000000000000 1.000000000000000 0.050000000000000 0.000000000000000 0.000000000000000 1.000000000000000 I I #
-255 ellipse-curve $-1 0.100000000000000 -0.100000000000000 1.000000000000000 0.000000000000000 0.000000000000000 1.000000000000000 0.050000000000000 0.000000000000000 0.000000000000000 1.000000000000000 I I #
-256 ellipse-curve $-1 0.100000000000000 0.100000000000000 1.000000000000000 0.000000000000000 0.000000000000000 1.000000000000000 0.050000000000000 0.000000000000000 0.000000000000000 1.000000000000000 I I #
-257 ellipse-curve $-1 -0.100000000000000 -0.100000000000000 0.000000000000000 0.000000000000000 0.000000000000000 1.000000000000000 0.050000000000000 0.000000000000000 0.000000000000000 1.000000000000000 I I #
-258 ellipse-curve $-1 -0.100000000000000 0.100000000000000 0.000000000000000 0.000000000000000 0.000000000000000 1.000000000000000 0.050000000000000 0.000000000000000 0.000000000000000 1.000000000000000 I I #
-259 ellipse-curve $-1 0.100000000000000 -0.100000000000000 0.000000000000000 0.000000000000000 0.000000000000000 1.000000000000000 0.050000000000000 0.000000000000000 0.000000000000000 1.000000000000000 I I #
-260 ellipse-curve $-1 0.100000000000000 0.100000000000000 0.000000000000000 0.000000000000000 0.000000000000000 1.000000000000000 0.050000000000000 0.000000000000000 0.000000000000000 1.000000000000000 I I #
End-of-ACIS-data 